<?xml version="1.0" encoding="utf-8"?>
<!-- Generator: Adobe Illustrator 26.0.2, SVG Export Plug-In . SVG Version: 6.00 Build 0)  -->
<svg version="1.1" id="Layer_1" xmlns="http://www.w3.org/2000/svg" xmlns:xlink="http://www.w3.org/1999/xlink" x="0px" y="0px"
	 viewBox="0 0 841.9 425.2" style="enable-background:new 0 0 841.9 425.2;" xml:space="preserve">
<style type="text/css">
	.st0{fill:#002856;}
	.st1{fill:url(#SVGID_1_);}
</style>
<g>
	<path class="st0" d="M491.5,198.5v-45.3h8.3v42.1c0,9.5,1.7,17.1,5.1,22.7c3.4,5.6,8.9,8.3,16.5,8.3c8.3,0,14.1-2.5,17.8-7.3
		c3.6-4.8,5.3-11.8,5.3-20.7v-45.1h4.6v46.7c0,9.5-2.4,17.1-7.1,22.4c-4.7,5.5-11.7,8.2-20.7,8.2c-10.1,0-17.5-2.7-22.3-8.3
		C493.9,216.5,491.5,208.7,491.5,198.5 M623.7,228.8h-4.3l-50.6-62.9v62.9h-4.2v-75.7h4.5l50.5,62.7v-62.7h4.2V228.8z M648.9,204.3
		l-9.2,24.5h-6l30.7-75.7h3.7l27.9,75.7h-9.2l-8.7-24.5H648.9z M663.9,164l-13.8,36.9h26.8L663.9,164z M456.9,229.2h-8.2v-33.1
		l-27.3-42.9h9.2L454,190l21.6-36.8h7.2c-7.8,13.8-16.5,28.1-25.9,42.6V229.2z"/>
	<path class="st0" d="M422.1,262.8c0-1.8,0.4-3.4,1.2-4.9c0.8-1.5,1.9-2.6,3.3-3.5c1.4-0.8,3-1.3,4.8-1.3c2,0,3.7,0.5,5.1,1.4
		l-0.7,1.2c-1.3-1-2.6-1.5-4.1-1.5c-1.5,0-2.8,0.4-3.8,1.3c-1,0.8-1.8,1.9-2.2,3.2c-0.5,1.3-0.7,2.6-0.7,3.9c0,2.5,0.6,4.5,1.7,5.9
		c1.1,1.5,2.8,2.2,4.9,2.2c1.8,0,3.2-0.5,4.4-1.5l0.6,0.9c-0.6,0.6-1.5,1-2.4,1.4c-1,0.4-2.1,0.6-3.2,0.6c-2.7,0-4.9-0.8-6.4-2.5
		C422.9,267.8,422.1,265.6,422.1,262.8 M450.6,267.6c-0.5,1-1.2,1.8-2,2.3c-0.8,0.5-1.7,0.7-2.7,0.7c-1.3,0-2.3-0.4-3-1.1
		c-0.7-0.7-1.1-1.7-1.1-3c0-1.5,0.6-2.7,1.7-3.5c1.1-0.8,2.8-1.2,4.9-1.2c0.7,0,1.8,0.1,3.1,0.3v1.8
		C451.4,265.4,451.2,266.6,450.6,267.6 M453.8,260.5c0-2.6-0.6-4.4-1.7-5.6c-1.1-1.1-2.8-1.7-5-1.7c-1.3,0-2.5,0.2-3.7,0.6
		s-2.2,0.9-3,1.7l0.7,1.2c1.7-1.5,3.6-2.2,5.6-2.2c1.8,0,3,0.5,3.6,1.5c0.7,1,1,2.4,1,4.4v0.9c-1.2-0.2-2.5-0.3-3.8-0.3
		c-2.6,0-4.7,0.5-6.2,1.5c-1.5,1-2.3,2.5-2.3,4.4c0,1.8,0.6,3.1,1.7,4c1.1,0.9,2.6,1.3,4.3,1.3c1.5,0,2.7-0.3,3.8-1
		c1.1-0.6,1.9-1.6,2.4-2.9l0.9,3.4h1.6V260.5 M472.2,262.8c0,2.5-0.5,4.5-1.5,5.9c-1,1.5-2.4,2.2-4.1,2.2c-1.1,0-2.1-0.4-2.9-1.1
		c-0.8-0.8-1.4-1.8-1.9-3c-0.4-1.2-0.6-2.5-0.6-3.9c0-2.4,0.5-4.4,1.5-6c1-1.6,2.4-2.4,4.4-2.4c1,0,1.9,0.2,2.8,0.7
		c0.9,0.5,1.7,1.3,2.3,2.5V262.8 M474.7,245.7h-2.4v10c-0.6-0.8-1.4-1.4-2.2-1.9c-0.9-0.4-1.9-0.6-3.2-0.6c-1.5,0-2.8,0.4-4.1,1.1
		c-1.3,0.7-2.3,1.8-3.1,3.3c-0.8,1.5-1.2,3.2-1.2,5.2c0,2.9,0.7,5.1,2.1,6.8c1.4,1.7,3.2,2.5,5.5,2.5c1.4,0,2.6-0.4,3.7-1.1
		c1.1-0.7,1.9-1.7,2.4-2.8l0.9,3.4h1.5V245.7z M491.3,267.6c-0.5,1-1.2,1.8-2,2.3c-0.8,0.5-1.7,0.7-2.7,0.7c-1.3,0-2.3-0.4-3-1.1
		c-0.7-0.7-1.1-1.7-1.1-3c0-1.5,0.6-2.7,1.7-3.5c1.1-0.8,2.8-1.2,4.9-1.2c0.7,0,1.8,0.1,3.1,0.3v1.8
		C492,265.4,491.8,266.6,491.3,267.6 M494.5,260.5c0-2.6-0.6-4.4-1.7-5.6c-1.1-1.1-2.8-1.7-5-1.7c-1.3,0-2.5,0.2-3.7,0.6
		c-1.2,0.4-2.2,0.9-3,1.7l0.7,1.2c1.7-1.5,3.6-2.2,5.6-2.2c1.8,0,3,0.5,3.6,1.5c0.7,1,1,2.4,1,4.4v0.9c-1.2-0.2-2.5-0.3-3.8-0.3
		c-2.6,0-4.7,0.5-6.2,1.5c-1.5,1-2.3,2.5-2.3,4.4c0,1.8,0.6,3.1,1.7,4c1.1,0.9,2.6,1.3,4.3,1.3c1.5,0,2.7-0.3,3.8-1
		c1.1-0.6,1.9-1.6,2.4-2.9l0.9,3.4h1.6V260.5 M518.7,262.9c1.4-3.5,2.5-6.5,3.4-9.2h-2.2c-0.5,2.1-1.3,4.7-2.3,7.7
		c-1,3-2,5.4-2.8,7.2l-5.8-14.9h-2.7l7.1,17.9h1.4C515.9,269.2,517.2,266.4,518.7,262.9 M528.5,253.7H526v17.9h2.5V253.7z
		 M525.4,248.4c0,0.5,0.2,0.9,0.5,1.2c0.3,0.3,0.7,0.5,1.3,0.5c0.6,0,1-0.2,1.3-0.5c0.3-0.3,0.5-0.7,0.5-1.2c0-0.5-0.2-0.9-0.5-1.2
		c-0.3-0.3-0.8-0.4-1.3-0.4c-0.6,0-1,0.2-1.3,0.5C525.6,247.5,525.4,247.8,525.4,248.4 M547.8,262.8c0,2.5-0.5,4.5-1.5,5.9
		c-1,1.5-2.4,2.2-4.1,2.2c-1.1,0-2.1-0.4-2.9-1.1c-0.8-0.8-1.4-1.8-1.9-3c-0.4-1.2-0.6-2.5-0.6-3.9c0-2.4,0.5-4.4,1.5-6
		c1-1.6,2.4-2.4,4.4-2.4c1,0,1.9,0.2,2.8,0.7c0.9,0.5,1.7,1.3,2.3,2.5V262.8 M550.2,245.7h-2.4v10c-0.6-0.8-1.4-1.4-2.2-1.9
		c-0.9-0.4-1.9-0.6-3.2-0.6c-1.5,0-2.8,0.4-4.1,1.1c-1.3,0.7-2.3,1.8-3.1,3.3c-0.8,1.5-1.2,3.2-1.2,5.2c0,2.9,0.7,5.1,2.1,6.8
		c1.4,1.7,3.2,2.5,5.5,2.5c1.4,0,2.6-0.4,3.7-1.1c1.1-0.7,1.9-1.7,2.4-2.8l0.9,3.4h1.5V245.7z M566.8,267.6c-0.5,1-1.2,1.8-2,2.3
		c-0.8,0.5-1.7,0.7-2.7,0.7c-1.3,0-2.3-0.4-3-1.1c-0.7-0.7-1.1-1.7-1.1-3c0-1.5,0.6-2.7,1.7-3.5c1.1-0.8,2.8-1.2,4.9-1.2
		c0.7,0,1.8,0.1,3.1,0.3v1.8C567.6,265.4,567.3,266.6,566.8,267.6 M570,260.5c0-2.6-0.6-4.4-1.7-5.6c-1.1-1.1-2.8-1.7-5-1.7
		c-1.3,0-2.5,0.2-3.7,0.6s-2.2,0.9-3,1.7l0.7,1.2c1.7-1.5,3.6-2.2,5.6-2.2c1.8,0,3,0.5,3.6,1.5c0.7,1,1,2.4,1,4.4v0.9
		c-1.2-0.2-2.5-0.3-3.8-0.3c-2.6,0-4.7,0.5-6.2,1.5c-1.5,1-2.3,2.5-2.3,4.4c0,1.8,0.6,3.1,1.7,4c1.1,0.9,2.6,1.3,4.3,1.3
		c1.5,0,2.7-0.3,3.8-1c1.1-0.6,1.9-1.6,2.4-2.9l0.9,3.4h1.6V260.5 M594.8,246.2c-1.8,1.5-3.4,3-4.7,4.4l0.5,0.6
		c1.9-1.2,3.9-2.4,6.1-3.6L594.8,246.2 M586.3,261.2c0.1-2,0.6-3.6,1.7-5c1-1.4,2.3-2.1,3.9-2.1c1.6,0,2.8,0.6,3.5,1.8
		c0.7,1.2,1.1,2.6,1.1,4.1c0,0.2,0,0.5-0.1,1.1H586.3 M599.1,262.2c0-0.2,0.1-0.6,0.1-1.1c0-2.3-0.6-4.2-1.8-5.7
		c-1.2-1.5-3-2.2-5.4-2.2c-1.7,0-3.2,0.4-4.5,1.3c-1.3,0.9-2.2,2-2.9,3.4c-0.7,1.4-1,3-1,4.6c0,1.7,0.3,3.3,0.9,4.8
		c0.6,1.5,1.5,2.6,2.8,3.5c1.3,0.9,2.9,1.3,4.9,1.3c2.5,0,4.6-0.7,6.2-2l-0.6-1c-0.8,0.6-1.5,1-2.2,1.2c-0.8,0.3-1.7,0.4-2.7,0.4
		c-2.2,0-3.8-0.8-4.9-2.4c-1.1-1.6-1.7-3.6-1.7-6.2H599.1z M623.5,246.2c-1.8,1.5-3.4,3-4.7,4.4l0.5,0.6c1.9-1.2,3.9-2.4,6.1-3.6
		L623.5,246.2 M627.9,253.7h-2.5v8.4c0,2.7-0.5,4.8-1.5,6.3c-1,1.5-2.4,2.3-4.1,2.3c-1.3,0-2.3-0.4-2.9-1.1
		c-0.7-0.7-1.1-1.6-1.2-2.6c-0.2-1-0.3-2.2-0.3-3.5v-9.8h-2.5v10.7c0,2.4,0.5,4.3,1.6,5.6c1,1.4,2.6,2.1,4.8,2.1
		c1.2,0,2.4-0.3,3.5-1c1.1-0.6,2-1.6,2.6-2.9l0.9,3.4h1.6V253.7z M649.6,260.8c0-2.4-0.5-4.3-1.5-5.6c-1-1.3-2.6-2-4.7-2
		c-1.3,0-2.5,0.3-3.6,0.9c-1.1,0.7-2,1.7-2.6,3l-0.9-3.4h-1.5v17.9h2.5v-8.7c0-2.6,0.5-4.7,1.6-6.1c1-1.5,2.4-2.2,4.1-2.2
		c1.9,0,3,0.7,3.6,2.1c0.5,1.4,0.8,3.1,0.8,5.2v9.8h2.5V260.8 M658.7,253.7h-2.5v17.9h2.5V253.7z M655.7,248.4
		c0,0.5,0.2,0.9,0.5,1.2c0.3,0.3,0.7,0.5,1.3,0.5c0.6,0,1-0.2,1.3-0.5c0.3-0.3,0.5-0.7,0.5-1.2c0-0.5-0.2-0.9-0.5-1.2
		c-0.3-0.3-0.8-0.4-1.3-0.4c-0.6,0-1,0.2-1.3,0.5C655.8,247.5,655.7,247.8,655.7,248.4 M664.3,262.8c0,2.8,0.8,5,2.3,6.7
		c1.5,1.7,3.7,2.5,6.4,2.5c1.1,0,2.1-0.2,3.2-0.6c1-0.4,1.8-0.8,2.4-1.4l-0.6-0.9c-1.2,1-2.6,1.5-4.4,1.5c-2.1,0-3.7-0.7-4.9-2.2
		c-1.1-1.5-1.7-3.4-1.7-5.9c0-1.3,0.2-2.6,0.7-3.9c0.4-1.3,1.2-2.3,2.2-3.2c1-0.8,2.3-1.3,3.8-1.3c1.5,0,2.8,0.5,4.1,1.5l0.7-1.2
		c-1.4-0.9-3-1.4-5-1.4c-1.8,0-3.4,0.4-4.8,1.3c-1.4,0.9-2.5,2-3.3,3.5C664.7,259.4,664.3,261,664.3,262.8 M692.8,267.6
		c-0.5,1-1.2,1.8-2,2.3c-0.8,0.5-1.7,0.7-2.7,0.7c-1.3,0-2.3-0.4-3-1.1c-0.7-0.7-1.1-1.7-1.1-3c0-1.5,0.6-2.7,1.7-3.5
		c1.1-0.8,2.8-1.2,4.9-1.2c0.7,0,1.8,0.1,3.1,0.3v1.8C693.6,265.4,693.3,266.6,692.8,267.6 M696,260.5c0-2.6-0.6-4.4-1.7-5.6
		c-1.1-1.1-2.8-1.7-5-1.7c-1.3,0-2.5,0.2-3.7,0.6c-1.2,0.4-2.2,0.9-3,1.7l0.7,1.2c1.7-1.5,3.6-2.2,5.6-2.2c1.8,0,3,0.5,3.6,1.5
		c0.7,1,1,2.4,1,4.4v0.9c-1.2-0.2-2.5-0.3-3.8-0.3c-2.6,0-4.7,0.5-6.2,1.5c-1.5,1-2.3,2.5-2.3,4.4c0,1.8,0.6,3.1,1.7,4
		c1.1,0.9,2.6,1.3,4.3,1.3c1.5,0,2.7-0.3,3.8-1c1.1-0.6,1.9-1.6,2.4-2.9l0.9,3.4h1.6V260.5"/>
	<linearGradient id="SVGID_1_" gradientUnits="userSpaceOnUse" x1="413.5924" y1="212.4691" x2="145.8666" y2="212.4691">
		<stop  offset="0.1273" style="stop-color:#FF8090"/>
		<stop  offset="0.8923" style="stop-color:#FDCF85"/>
	</linearGradient>
	<path class="st1" d="M211.4,153.1v39.6h-2.1v39.6h-21v-39.5l12.9-0.1v-39.6h-18v39.6h-4.1v-39.6h-7.4v39.6h-25.8v39.6h35.7v39.6
		h34.1v-39.6h17.9v-39.6h-4v-39.6H211.4z M321,193.7v-1h18.8v0.8v38.7H321V193.7z M357.9,193.2v-0.5h7.7v39.6h-7.7V193.2z
		 M394.3,153.1v39.6h-11.9v-39.6h-29.2v39.6h-8.3v-39.6h-39.5v39.6H292v39.6h-5.6v-39.6h-2.8v-39.3H244V193h1.9v39.3h-7.3v39.6h29.2
		v-39.6h-0.9V193h9v39.3h6v39.6h13.4v-39.6h15.4v39.6h34.9v-39.6h6v39.6h28.2v-39.6h-3.7v-39.6h5.2v39.6h10.1v39.6h18.2v-39.6h4
		v-39.6h-9.2v-39.6H394.3z"/>
</g>
</svg>
